<?xml version="1.0" encoding="UTF-8"?>
<svg id="Layer_1" xmlns="http://www.w3.org/2000/svg" xmlns:xlink="http://www.w3.org/1999/xlink" version="1.1" viewBox="0 0 30 30">
  <!-- Generator: Adobe Illustrator 29.0.1, SVG Export Plug-In . SVG Version: 2.1.0 Build 192)  -->
  <defs>
    <style>
      .st0 {
        fill: #f7f714;
      }

      .st1 {
        fill: url(#linear-gradient);
      }
    </style>
    <linearGradient id="linear-gradient" x1="15" y1="26.48" x2="15" y2="2.04" gradientUnits="userSpaceOnUse">
      <stop offset="0" stop-color="#ff08ff"/>
      <stop offset="1" stop-color="#f9ec12"/>
    </linearGradient>
  </defs>
  <polygon class="st1" points="15 20.71 7.06 26.48 10.09 17.14 2.15 11.38 11.97 11.38 15 2.04 18.03 11.38 27.85 11.38 19.91 17.14 22.94 26.48 15 20.71"/>
  <path class="st0" d="M15,3.26l2.59,7.98.17.52h8.93l-6.79,4.93-.44.32.17.52,2.59,7.98-6.79-4.93-.44-.32-.44.32-6.79,4.93,2.59-7.98.17-.52-.44-.32-6.79-4.93h8.93l.17-.52,2.59-7.98M15,.83l-3.3,10.17H1l8.65,6.29-3.3,10.17,8.65-6.29,8.65,6.29-3.3-10.17,8.65-6.29h-10.7L15,.83h0Z"/>
</svg>